<svg width="733" height="194" viewBox="0 0 733 194" fill="none" xmlns="http://www.w3.org/2000/svg">
<path fill-rule="evenodd" clip-rule="evenodd" d="M0 0H65.233V4.01434C50.3223 6.98599 46.0787 11.0114 45.1613 22.0789V47.1685H112.401C112.401 52.6882 109.892 58.2079 103.369 58.2079L130.466 124.444C125.448 158.566 68.7455 155.054 64.7312 124.444L92.8315 58.2079H45.1613V180.645C45.1613 180.645 108.099 180.645 116.416 180.645C124.732 180.645 133.477 170.108 133.978 154.05H140L133.978 193.19H0V188.674C13.0466 188.674 20.5735 182.151 21.0753 169.104V22.0789C18.4836 9.09764 13.5026 5.52642 0 4.01434V0ZM74.2652 122.939L97.8495 62.2222L120.932 122.939H74.2652Z" fill="url(#paint0_linear_249_2)"/>
<path d="M193.44 142.596V52.9957H206.24V131.46H254.752V142.596H193.44ZM269.44 142.596V52.9957H332.672V64.1317H282.24V131.46H334.464V142.596H269.44ZM281.088 102.532V91.6517H327.168V102.532H281.088ZM395.513 143.62C388.601 143.62 382.244 142.51 376.441 140.292C370.638 137.988 365.604 134.788 361.337 130.692C357.07 126.51 353.742 121.646 351.353 116.1C348.964 110.553 347.769 104.452 347.769 97.7957C347.769 91.1397 348.964 85.0384 351.353 79.4917C353.742 73.945 357.07 69.1237 361.337 65.0277C365.689 60.8464 370.766 57.6464 376.569 55.4277C382.372 53.1237 388.772 51.9717 395.769 51.9717C402.852 51.9717 409.337 53.1237 415.225 55.4277C421.113 57.7317 426.105 61.1877 430.201 65.7957L422.265 73.7317C418.596 70.1477 414.585 67.545 410.233 65.9237C405.966 64.217 401.316 63.3637 396.281 63.3637C391.161 63.3637 386.382 64.217 381.945 65.9237C377.593 67.6304 373.796 70.0197 370.553 73.0917C367.396 76.1637 364.921 79.833 363.129 84.0997C361.422 88.281 360.569 92.8464 360.569 97.7957C360.569 102.66 361.422 107.225 363.129 111.492C364.921 115.673 367.396 119.342 370.553 122.5C373.796 125.572 377.593 127.961 381.945 129.668C386.297 131.374 391.033 132.228 396.153 132.228C400.932 132.228 405.497 131.502 409.849 130.052C414.286 128.516 418.382 125.998 422.137 122.5L429.433 132.228C424.996 135.982 419.79 138.841 413.817 140.804C407.929 142.681 401.828 143.62 395.513 143.62ZM429.433 132.228L417.145 130.564V97.2837H429.433V132.228ZM440.372 142.596L480.948 52.9957H493.62L534.324 142.596H520.884L484.66 60.1637H489.78L453.556 142.596H440.372ZM457.652 120.196L461.108 109.956H511.54L515.252 120.196H457.652ZM573.802 143.62C566.975 143.62 560.447 142.596 554.218 140.548C547.989 138.414 543.082 135.684 539.498 132.356L544.234 122.372C547.647 125.358 551.999 127.833 557.29 129.796C562.581 131.758 568.085 132.74 573.802 132.74C579.007 132.74 583.231 132.142 586.474 130.948C589.717 129.753 592.106 128.132 593.642 126.084C595.178 123.95 595.946 121.561 595.946 118.916C595.946 115.844 594.922 113.369 592.874 111.492C590.911 109.614 588.309 108.121 585.066 107.012C581.909 105.817 578.41 104.793 574.57 103.94C570.73 103.086 566.847 102.105 562.922 100.996C559.082 99.801 555.541 98.3077 552.298 96.5157C549.141 94.7237 546.581 92.3344 544.618 89.3477C542.655 86.2757 541.674 82.3504 541.674 77.5717C541.674 72.9637 542.869 68.7397 545.258 64.8997C547.733 60.9744 551.487 57.8597 556.522 55.5557C561.642 53.1664 568.127 51.9717 575.978 51.9717C581.183 51.9717 586.346 52.6544 591.466 54.0197C596.586 55.385 601.023 57.3477 604.778 59.9077L600.554 70.1477C596.714 67.5877 592.661 65.753 588.394 64.6437C584.127 63.449 579.989 62.8517 575.978 62.8517C570.943 62.8517 566.805 63.4917 563.562 64.7717C560.319 66.0517 557.93 67.7584 556.394 69.8917C554.943 72.025 554.218 74.4144 554.218 77.0597C554.218 80.217 555.199 82.7344 557.162 84.6117C559.21 86.489 561.813 87.9824 564.97 89.0917C568.213 90.201 571.754 91.225 575.594 92.1637C579.434 93.017 583.274 93.9984 587.114 95.1077C591.039 96.217 594.581 97.6677 597.738 99.4597C600.981 101.252 603.583 103.641 605.546 106.628C607.509 109.614 608.49 113.454 608.49 118.148C608.49 122.67 607.253 126.894 604.778 130.82C602.303 134.66 598.463 137.774 593.258 140.164C588.138 142.468 581.653 143.62 573.802 143.62ZM653.302 143.62C646.475 143.62 639.947 142.596 633.718 140.548C627.489 138.414 622.582 135.684 618.998 132.356L623.734 122.372C627.147 125.358 631.499 127.833 636.79 129.796C642.081 131.758 647.585 132.74 653.302 132.74C658.507 132.74 662.731 132.142 665.974 130.948C669.217 129.753 671.606 128.132 673.142 126.084C674.678 123.95 675.446 121.561 675.446 118.916C675.446 115.844 674.422 113.369 672.374 111.492C670.411 109.614 667.809 108.121 664.566 107.012C661.409 105.817 657.91 104.793 654.07 103.94C650.23 103.086 646.347 102.105 642.422 100.996C638.582 99.801 635.041 98.3077 631.798 96.5157C628.641 94.7237 626.081 92.3344 624.118 89.3477C622.155 86.2757 621.174 82.3504 621.174 77.5717C621.174 72.9637 622.369 68.7397 624.758 64.8997C627.233 60.9744 630.987 57.8597 636.022 55.5557C641.142 53.1664 647.627 51.9717 655.478 51.9717C660.683 51.9717 665.846 52.6544 670.966 54.0197C676.086 55.385 680.523 57.3477 684.278 59.9077L680.054 70.1477C676.214 67.5877 672.161 65.753 667.894 64.6437C663.627 63.449 659.489 62.8517 655.478 62.8517C650.443 62.8517 646.305 63.4917 643.062 64.7717C639.819 66.0517 637.43 67.7584 635.894 69.8917C634.443 72.025 633.718 74.4144 633.718 77.0597C633.718 80.217 634.699 82.7344 636.662 84.6117C638.71 86.489 641.313 87.9824 644.47 89.0917C647.713 90.201 651.254 91.225 655.094 92.1637C658.934 93.017 662.774 93.9984 666.614 95.1077C670.539 96.217 674.081 97.6677 677.238 99.4597C680.481 101.252 683.083 103.641 685.046 106.628C687.009 109.614 687.99 113.454 687.99 118.148C687.99 122.67 686.753 126.894 684.278 130.82C681.803 134.66 677.963 137.774 672.758 140.164C667.638 142.468 661.153 143.62 653.302 143.62ZM706.69 142.596V52.9957H719.49V142.596H706.69Z" fill="#FFEABF"/>
<defs>
<linearGradient id="paint0_linear_249_2" x1="70" y1="0" x2="70" y2="193.19" gradientUnits="userSpaceOnUse">
<stop offset="0.25" stop-color="#FDB525"/>
<stop offset="1" stop-color="#D89611"/>
</linearGradient>
</defs>
</svg>
