<svg width="282" height="388" viewBox="0 0 282 388" fill="none" xmlns="http://www.w3.org/2000/svg">
<path fill-rule="evenodd" clip-rule="evenodd" d="M1 1H131.466V9.02867C101.645 14.972 93.1574 23.0227 91.3226 45.1577V95.3369H225.803C225.803 106.376 220.785 117.416 207.738 117.416L261.932 249.889C251.896 318.133 138.491 311.108 130.462 249.889L186.663 117.416H91.3226V362.29C91.3226 362.29 217.199 362.29 233.831 362.29C250.464 362.29 267.953 341.215 268.957 309.1H281L268.957 387.38H1V378.348C27.0932 378.348 42.147 365.301 43.1505 339.208V45.1577C37.9673 19.1953 28.0052 12.0528 1 9.02867V1ZM149.53 246.878L196.699 125.444L242.864 246.878H149.53Z" fill="url(#paint0_linear_43_2)" stroke="#FDB525"/>
<defs>
<linearGradient id="paint0_linear_43_2" x1="141" y1="1" x2="141" y2="387.38" gradientUnits="userSpaceOnUse">
<stop offset="0.25" stop-color="#FDB525"/>
<stop offset="1" stop-color="#885D07"/>
</linearGradient>
</defs>
</svg>
